<svg xmlns="http://www.w3.org/2000/svg" xmlns:xlink="http://www.w3.org/1999/xlink" width="500" zoomAndPan="magnify" viewBox="0 0 375 374.999991" height="500" preserveAspectRatio="xMidYMid meet" version="1.0"><defs><g/><clipPath id="f6c0f28a69"><path d="M 0 76.136719 L 375 76.136719 L 375 298.863281 L 0 298.863281 Z M 0 76.136719 " clip-rule="nonzero"/></clipPath><clipPath id="ba59ac696f"><path d="M 7.5 76.136719 L 367.5 76.136719 C 371.640625 76.136719 375 79.492188 375 83.636719 L 375 291.363281 C 375 295.507812 371.640625 298.863281 367.5 298.863281 L 7.5 298.863281 C 3.359375 298.863281 0 295.507812 0 291.363281 L 0 83.636719 C 0 79.492188 3.359375 76.136719 7.5 76.136719 Z M 7.5 76.136719 " clip-rule="nonzero"/></clipPath><clipPath id="7d4a507e4e"><path d="M 65.996094 0 L 314.328125 0 L 314.328125 76.136719 L 65.996094 76.136719 Z M 65.996094 0 " clip-rule="nonzero"/></clipPath><clipPath id="b04735a6f2"><path d="M 68.507812 298.863281 L 316.839844 298.863281 L 316.839844 375 L 68.507812 375 Z M 68.507812 298.863281 " clip-rule="nonzero"/></clipPath></defs><rect x="-37.5" width="450" fill="#ffffff" y="-37.499999" height="449.999989" fill-opacity="1"/><rect x="-37.5" width="450" fill="#121212" y="-37.499999" height="449.999989" fill-opacity="1"/><g clip-path="url(#f6c0f28a69)"><g clip-path="url(#ba59ac696f)"><path fill="#d02025" d="M 0 76.136719 L 374.988281 76.136719 L 374.988281 298.863281 L 0 298.863281 Z M 0 76.136719 " fill-opacity="1" fill-rule="nonzero"/></g></g><g fill="#ffffff" fill-opacity="1"><g transform="translate(95.209333, 273.858543)"><g><path d="M 90.3125 -90.3125 L 64.8125 -64.8125 L 11.515625 -80.015625 L 25.515625 -25.515625 L 1.09375 -1.09375 L -17.796875 -84.796875 L -97.421875 -103.140625 L -72.390625 -128.171875 L -22.109375 -113.640625 L -36.21875 -164.34375 L -12 -188.5625 L 5.53125 -109.75 Z M 90.3125 -90.3125 "/></g></g></g><g fill="#ffffff" fill-opacity="1"><g transform="translate(186.821567, 182.246309)"><g><path d="M -57.984375 -70.265625 C -69.710938 -81.992188 -75.539062 -93.710938 -75.46875 -105.421875 C -75.40625 -117.140625 -70.46875 -127.90625 -60.65625 -137.71875 C -50.457031 -147.914062 -39.351562 -153.257812 -27.34375 -153.75 C -15.34375 -154.25 -4.660156 -149.816406 4.703125 -140.453125 C 10.429688 -134.722656 14.453125 -128.035156 16.765625 -120.390625 C 19.085938 -112.753906 18.9375 -101.800781 16.3125 -87.53125 C 14.207031 -75.425781 12.789062 -66.484375 12.0625 -60.703125 C 11.34375 -54.929688 11.503906 -50.429688 12.546875 -47.203125 L 55.453125 -90.109375 L 72.78125 -72.78125 L 4.984375 -4.984375 C -3.609375 -13.847656 -9.003906 -23.085938 -11.203125 -32.703125 C -13.410156 -42.328125 -13.289062 -55.050781 -10.84375 -70.875 C -7.9375 -89.34375 -6.945312 -101.382812 -7.875 -107 C -8.800781 -112.613281 -11.289062 -117.445312 -15.34375 -121.5 C -19.382812 -125.539062 -24.03125 -127.660156 -29.28125 -127.859375 C -34.539062 -128.066406 -39.332031 -126.007812 -43.65625 -121.6875 C -47.976562 -117.363281 -50.035156 -112.625 -49.828125 -107.46875 C -49.617188 -102.3125 -46.015625 -96.234375 -39.015625 -89.234375 Z M -57.984375 -70.265625 "/></g></g></g><g fill="#ffffff" fill-opacity="1"><g transform="translate(117.830753, 309.360158)"><g><path d="M -0.3125 -14.46875 L 4.65625 -19.4375 L -5.5 -24.75 L -5.5625 -24.6875 Z M 4.625 -4.625 L 0.328125 -0.328125 L -12.21875 -26.8125 L -7.515625 -31.515625 L 18.875 -18.875 L 14.4375 -14.4375 L 9.171875 -17.203125 L 1.96875 -10 Z M 4.625 -4.625 "/></g></g></g><g fill="#ffffff" fill-opacity="1"><g transform="translate(136.169956, 291.020955)"><g><path d="M -0.96875 -11.0625 C 0 -10.09375 1.125 -9.675781 2.40625 -9.8125 C 3.695312 -9.957031 5.003906 -10.691406 6.328125 -12.015625 C 7.660156 -13.347656 8.457031 -14.578125 8.71875 -15.703125 C 8.976562 -16.828125 8.691406 -17.804688 7.859375 -18.640625 C 7.367188 -19.128906 6.757812 -19.375 6.03125 -19.375 C 5.3125 -19.382812 4.117188 -18.878906 2.453125 -17.859375 L -1.625 -15.3125 C -4.226562 -13.707031 -6.332031 -12.953125 -7.9375 -13.046875 C -9.550781 -13.148438 -11.109375 -13.953125 -12.609375 -15.453125 C -14.367188 -17.210938 -15.179688 -19.28125 -15.046875 -21.65625 C -14.910156 -24.03125 -13.59375 -26.46875 -11.09375 -28.96875 C -8.613281 -31.445312 -6.097656 -32.703125 -3.546875 -32.734375 C -1.003906 -32.773438 1.113281 -31.957031 2.8125 -30.28125 L -1.109375 -26.359375 C -2.140625 -27.222656 -3.234375 -27.578125 -4.390625 -27.421875 C -5.546875 -27.265625 -6.757812 -26.550781 -8.03125 -25.28125 C -9.039062 -24.269531 -9.648438 -23.238281 -9.859375 -22.1875 C -10.078125 -21.144531 -9.828125 -20.265625 -9.109375 -19.546875 C -8.609375 -19.046875 -8.054688 -18.769531 -7.453125 -18.71875 C -6.847656 -18.664062 -6.164062 -18.875 -5.40625 -19.34375 L 1.109375 -23.265625 C 3.453125 -24.691406 5.410156 -25.332031 6.984375 -25.1875 C 8.566406 -25.050781 10.007812 -24.332031 11.3125 -23.03125 C 13.425781 -20.914062 14.28125 -18.585938 13.875 -16.046875 C 13.46875 -13.503906 12.175781 -11.144531 10 -8.96875 C 7.1875 -6.15625 4.488281 -4.65625 1.90625 -4.46875 C -0.664062 -4.289062 -2.929688 -5.179688 -4.890625 -7.140625 Z M -0.96875 -11.0625 "/></g></g></g><g fill="#ffffff" fill-opacity="1"><g transform="translate(153.52679, 273.664121)"><g><path d="M 6.0625 -6.0625 L 1.984375 -1.984375 L -17.53125 -21.5 L -13.453125 -25.578125 Z M 6.0625 -6.0625 "/></g></g></g><g fill="#ffffff" fill-opacity="1"><g transform="translate(160.714787, 266.476124)"><g><path d="M -0.3125 -14.46875 L 4.65625 -19.4375 L -5.5 -24.75 L -5.5625 -24.6875 Z M 4.625 -4.625 L 0.328125 -0.328125 L -12.21875 -26.8125 L -7.515625 -31.515625 L 18.875 -18.875 L 14.4375 -14.4375 L 9.171875 -17.203125 L 1.96875 -10 Z M 4.625 -4.625 "/></g></g></g><g fill="#ffffff" fill-opacity="1"><g transform="translate(179.05399, 248.136922)"><g/></g></g><g fill="#ffffff" fill-opacity="1"><g transform="translate(185.485294, 241.705618)"><g><path d="M 0.703125 -21.765625 L 8.84375 -29.90625 L 19.375 -19.375 L 16.65625 -16.65625 L 13.828125 -18.703125 C 14.296875 -15.234375 13.222656 -12.191406 10.609375 -9.578125 C 7.992188 -6.960938 4.921875 -5.753906 1.390625 -5.953125 C -2.128906 -6.160156 -5.429688 -7.804688 -8.515625 -10.890625 C -11.609375 -13.984375 -13.25 -17.332031 -13.4375 -20.9375 C -13.625 -24.539062 -12.242188 -27.816406 -9.296875 -30.765625 C -6.765625 -33.296875 -4.113281 -34.675781 -1.34375 -34.90625 C 1.425781 -35.132812 3.820312 -34.414062 5.84375 -32.75 L 1.796875 -28.703125 C 0.566406 -29.429688 -0.726562 -29.691406 -2.09375 -29.484375 C -3.457031 -29.273438 -4.660156 -28.648438 -5.703125 -27.609375 C -7.441406 -25.867188 -8.1875 -23.875 -7.9375 -21.625 C -7.695312 -19.382812 -6.492188 -17.179688 -4.328125 -15.015625 C -2.171875 -12.859375 -0.03125 -11.675781 2.09375 -11.46875 C 4.226562 -11.269531 6.226562 -12.101562 8.09375 -13.96875 C 9.144531 -15.019531 9.769531 -16.328125 9.96875 -17.890625 C 10.164062 -19.453125 9.691406 -21.160156 8.546875 -23.015625 L 4 -18.46875 Z M 0.703125 -21.765625 "/></g></g></g><g fill="#ffffff" fill-opacity="1"><g transform="translate(205.855605, 221.335307)"><g><path d="M 2.53125 -9.59375 L 12.25 -19.3125 L 15.78125 -15.78125 L 1.984375 -1.984375 L -17.53125 -21.5 L -13.453125 -25.578125 Z M 2.53125 -9.59375 "/></g></g></g><g fill="#ffffff" fill-opacity="1"><g transform="translate(221.221153, 205.969759)"><g><path d="M -4.546875 -14.953125 C -2.285156 -12.691406 -0.0820312 -11.492188 2.0625 -11.359375 C 4.21875 -11.234375 6.066406 -11.941406 7.609375 -13.484375 C 9.160156 -15.035156 9.835938 -16.890625 9.640625 -19.046875 C 9.441406 -21.203125 8.25 -23.375 6.0625 -25.5625 C 3.863281 -27.757812 1.691406 -28.960938 -0.453125 -29.171875 C -2.597656 -29.378906 -4.472656 -28.679688 -6.078125 -27.078125 C -7.679688 -25.472656 -8.378906 -23.601562 -8.171875 -21.46875 C -7.960938 -19.332031 -6.753906 -17.160156 -4.546875 -14.953125 Z M -8.625 -10.875 C -11.96875 -14.21875 -13.644531 -17.640625 -13.65625 -21.140625 C -13.664062 -24.640625 -12.300781 -27.757812 -9.5625 -30.5 C -6.8125 -33.25 -3.6875 -34.640625 -0.1875 -34.671875 C 3.300781 -34.710938 6.742188 -33.035156 10.140625 -29.640625 C 13.441406 -26.335938 15.109375 -22.929688 15.140625 -19.421875 C 15.179688 -15.921875 13.8125 -12.78125 11.03125 -10 C 8.382812 -7.351562 5.316406 -5.960938 1.828125 -5.828125 C -1.648438 -5.703125 -5.132812 -7.382812 -8.625 -10.875 Z M -8.625 -10.875 "/></g></g></g><g fill="#ffffff" fill-opacity="1"><g transform="translate(241.365788, 185.825123)"><g><path d="M -5.96875 -17.78125 L -1.1875 -22.5625 C -0.25 -23.5 0.269531 -24.40625 0.375 -25.28125 C 0.476562 -26.15625 0.1875 -26.9375 -0.5 -27.625 C -1.1875 -28.3125 -1.929688 -28.601562 -2.734375 -28.5 C -3.546875 -28.40625 -4.492188 -27.816406 -5.578125 -26.734375 L -10.25 -22.0625 Z M 2.53125 -9.28125 L 7.53125 -14.28125 C 8.519531 -15.269531 9.0625 -16.265625 9.15625 -17.265625 C 9.25 -18.265625 8.796875 -19.265625 7.796875 -20.265625 C 7.078125 -20.984375 6.242188 -21.289062 5.296875 -21.1875 C 4.359375 -21.09375 3.4375 -20.59375 2.53125 -19.6875 L -2.671875 -14.484375 Z M -17.53125 -21.5 L -8.046875 -30.984375 C -6.085938 -32.941406 -4.125 -33.960938 -2.15625 -34.046875 C -0.1875 -34.128906 1.515625 -33.453125 2.953125 -32.015625 C 4.953125 -30.015625 5.488281 -27.882812 4.5625 -25.625 C 7.34375 -26.863281 9.925781 -26.289062 12.3125 -23.90625 C 13.09375 -23.125 13.6875 -22.234375 14.09375 -21.234375 C 14.5 -20.234375 14.6875 -19.125 14.65625 -17.90625 C 14.625 -16.6875 14.296875 -15.519531 13.671875 -14.40625 C 13.054688 -13.300781 11.914062 -11.914062 10.25 -10.25 L 1.984375 -1.984375 Z M -17.53125 -21.5 "/></g></g></g><g fill="#ffffff" fill-opacity="1"><g transform="translate(259.66517, 167.525742)"><g><path d="M -0.3125 -14.46875 L 4.65625 -19.4375 L -5.5 -24.75 L -5.5625 -24.6875 Z M 4.625 -4.625 L 0.328125 -0.328125 L -12.21875 -26.8125 L -7.515625 -31.515625 L 18.875 -18.875 L 14.4375 -14.4375 L 9.171875 -17.203125 L 1.96875 -10 Z M 4.625 -4.625 "/></g></g></g><g fill="#ffffff" fill-opacity="1"><g transform="translate(278.004381, 149.186531)"><g><path d="M 2.53125 -9.59375 L 12.25 -19.3125 L 15.78125 -15.78125 L 1.984375 -1.984375 L -17.53125 -21.5 L -13.453125 -25.578125 Z M 2.53125 -9.59375 "/></g></g></g><g clip-path="url(#7d4a507e4e)"><path fill="#121212" d="M 65.996094 -32.054688 L 314.492188 -32.054688 L 314.492188 76.136719 L 65.996094 76.136719 Z M 65.996094 -32.054688 " fill-opacity="1" fill-rule="nonzero"/></g><g clip-path="url(#b04735a6f2)"><path fill="#121212" d="M 68.507812 298.863281 L 316.835938 298.863281 L 316.835938 375 L 68.507812 375 Z M 68.507812 298.863281 " fill-opacity="1" fill-rule="nonzero"/></g></svg>